<mxfile host="app.diagrams.net" modified="2023-05-18T20:50:35.904Z" agent="Mozilla/5.0 (X11; Linux x86_64) AppleWebKit/537.36 (KHTML, like Gecko) Chrome/112.0.0.0 Safari/537.36" etag="UOe73YEzxlHLn-M6SAK4" version="21.3.2" type="github">
  <diagram name="Página-1" id="DfqN4mKXvN-Aa6z4l7gO">
    <mxGraphModel dx="1434" dy="1944" grid="1" gridSize="10" guides="1" tooltips="1" connect="1" arrows="1" fold="1" page="1" pageScale="1" pageWidth="827" pageHeight="1169" math="0" shadow="0">
      <root>
        <mxCell id="0" />
        <mxCell id="1" parent="0" />
        <mxCell id="esB7P4ioS08fbRLjBYiO-17" value="medico" style="swimlane;childLayout=stackLayout;horizontal=1;startSize=50;horizontalStack=0;rounded=1;fontSize=14;fontStyle=0;strokeWidth=2;resizeParent=0;resizeLast=1;shadow=0;dashed=0;align=center;arcSize=4;whiteSpace=wrap;html=1;" vertex="1" parent="1">
          <mxGeometry x="330" y="-590" width="160" height="120" as="geometry" />
        </mxCell>
        <mxCell id="esB7P4ioS08fbRLjBYiO-18" value="+CRM&lt;br&gt;+nome&lt;br&gt;+salario&lt;br&gt;+especialidade" style="align=left;strokeColor=none;fillColor=none;spacingLeft=4;fontSize=12;verticalAlign=top;resizable=0;rotatable=0;part=1;html=1;" vertex="1" parent="esB7P4ioS08fbRLjBYiO-17">
          <mxGeometry y="50" width="160" height="70" as="geometry" />
        </mxCell>
        <mxCell id="esB7P4ioS08fbRLjBYiO-21" value="quarto" style="swimlane;childLayout=stackLayout;horizontal=1;startSize=50;horizontalStack=0;rounded=1;fontSize=14;fontStyle=0;strokeWidth=2;resizeParent=0;resizeLast=1;shadow=0;dashed=0;align=center;arcSize=4;whiteSpace=wrap;html=1;" vertex="1" parent="1">
          <mxGeometry x="334" y="-800" width="160" height="120" as="geometry" />
        </mxCell>
        <mxCell id="esB7P4ioS08fbRLjBYiO-22" value="+id&lt;br&gt;+andar&lt;br&gt;+número_quarto" style="align=left;strokeColor=none;fillColor=none;spacingLeft=4;fontSize=12;verticalAlign=top;resizable=0;rotatable=0;part=1;html=1;" vertex="1" parent="esB7P4ioS08fbRLjBYiO-21">
          <mxGeometry y="50" width="160" height="70" as="geometry" />
        </mxCell>
        <mxCell id="esB7P4ioS08fbRLjBYiO-23" value="contato" style="swimlane;childLayout=stackLayout;horizontal=1;startSize=50;horizontalStack=0;rounded=1;fontSize=14;fontStyle=0;strokeWidth=2;resizeParent=0;resizeLast=1;shadow=0;dashed=0;align=center;arcSize=4;whiteSpace=wrap;html=1;" vertex="1" parent="1">
          <mxGeometry x="100" y="-800" width="160" height="120" as="geometry">
            <mxRectangle x="600" y="-540" width="90" height="50" as="alternateBounds" />
          </mxGeometry>
        </mxCell>
        <mxCell id="esB7P4ioS08fbRLjBYiO-24" value="+id&lt;br&gt;+numero_celular&lt;br&gt;+numero_telefone" style="align=left;strokeColor=none;fillColor=none;spacingLeft=4;fontSize=12;verticalAlign=top;resizable=0;rotatable=0;part=1;html=1;" vertex="1" parent="esB7P4ioS08fbRLjBYiO-23">
          <mxGeometry y="50" width="160" height="70" as="geometry" />
        </mxCell>
        <mxCell id="esB7P4ioS08fbRLjBYiO-25" value="" style="line;strokeWidth=1;rotatable=0;dashed=0;labelPosition=right;align=left;verticalAlign=middle;spacingTop=0;spacingLeft=6;points=[];portConstraint=eastwest;" vertex="1" parent="esB7P4ioS08fbRLjBYiO-23">
          <mxGeometry y="120" width="160" as="geometry" />
        </mxCell>
        <mxCell id="esB7P4ioS08fbRLjBYiO-28" value="paciente" style="swimlane;childLayout=stackLayout;horizontal=1;startSize=50;horizontalStack=0;rounded=1;fontSize=14;fontStyle=0;strokeWidth=2;resizeParent=0;resizeLast=1;shadow=0;dashed=0;align=center;arcSize=4;whiteSpace=wrap;html=1;" vertex="1" parent="1">
          <mxGeometry x="240" y="-1090" width="160" height="140" as="geometry" />
        </mxCell>
        <mxCell id="esB7P4ioS08fbRLjBYiO-29" value="+id&lt;br&gt;+nome&lt;br&gt;+CPF&lt;br&gt;+RG&lt;br&gt;+endereco" style="align=left;strokeColor=none;fillColor=none;spacingLeft=4;fontSize=12;verticalAlign=top;resizable=0;rotatable=0;part=1;html=1;" vertex="1" parent="esB7P4ioS08fbRLjBYiO-28">
          <mxGeometry y="50" width="160" height="90" as="geometry" />
        </mxCell>
        <mxCell id="esB7P4ioS08fbRLjBYiO-35" value="internacaoPaciente" style="swimlane;childLayout=stackLayout;horizontal=1;startSize=50;horizontalStack=0;rounded=1;fontSize=14;fontStyle=0;strokeWidth=2;resizeParent=0;resizeLast=1;shadow=0;dashed=0;align=center;arcSize=4;whiteSpace=wrap;html=1;" vertex="1" parent="1">
          <mxGeometry x="550" y="-800" width="160" height="120" as="geometry" />
        </mxCell>
        <mxCell id="esB7P4ioS08fbRLjBYiO-36" value="+id&lt;br&gt;+data_entrada&lt;br&gt;+data_saida&lt;br&gt;+tratamento" style="align=left;strokeColor=none;fillColor=none;spacingLeft=4;fontSize=12;verticalAlign=top;resizable=0;rotatable=0;part=1;html=1;" vertex="1" parent="esB7P4ioS08fbRLjBYiO-35">
          <mxGeometry y="50" width="160" height="70" as="geometry" />
        </mxCell>
        <mxCell id="esB7P4ioS08fbRLjBYiO-41" value="" style="rounded=1;arcSize=10;whiteSpace=wrap;html=1;align=center;" vertex="1" parent="esB7P4ioS08fbRLjBYiO-35">
          <mxGeometry y="120" width="160" as="geometry" />
        </mxCell>
        <mxCell id="esB7P4ioS08fbRLjBYiO-27" value="id_paciente" style="rounded=1;arcSize=10;whiteSpace=wrap;html=1;align=center;" vertex="1" parent="1">
          <mxGeometry x="100" y="-680" width="160" height="40" as="geometry" />
        </mxCell>
        <mxCell id="esB7P4ioS08fbRLjBYiO-44" value="+id_paciente&lt;br&gt;+id_quarto&lt;br&gt;+id_equipeMedica" style="rounded=1;arcSize=10;whiteSpace=wrap;html=1;align=center;" vertex="1" parent="1">
          <mxGeometry x="550" y="-680" width="160" height="60" as="geometry" />
        </mxCell>
        <mxCell id="esB7P4ioS08fbRLjBYiO-49" value="equipeMedica" style="swimlane;childLayout=stackLayout;horizontal=1;startSize=50;horizontalStack=0;rounded=1;fontSize=14;fontStyle=0;strokeWidth=2;resizeParent=0;resizeLast=1;shadow=0;dashed=0;align=center;arcSize=4;whiteSpace=wrap;html=1;" vertex="1" parent="1">
          <mxGeometry x="550" y="-1080" width="160" height="100" as="geometry" />
        </mxCell>
        <mxCell id="esB7P4ioS08fbRLjBYiO-50" value="+id&lt;br&gt;+medico_principal" style="align=left;strokeColor=none;fillColor=none;spacingLeft=4;fontSize=12;verticalAlign=top;resizable=0;rotatable=0;part=1;html=1;" vertex="1" parent="esB7P4ioS08fbRLjBYiO-49">
          <mxGeometry y="50" width="160" height="50" as="geometry" />
        </mxCell>
        <mxCell id="esB7P4ioS08fbRLjBYiO-52" value="+id_medico&lt;br&gt;+id_internacaoPaciente" style="rounded=1;arcSize=10;whiteSpace=wrap;html=1;align=center;" vertex="1" parent="1">
          <mxGeometry x="550" y="-980" width="160" height="50" as="geometry" />
        </mxCell>
        <mxCell id="esB7P4ioS08fbRLjBYiO-53" value="" style="edgeStyle=entityRelationEdgeStyle;fontSize=12;html=1;endArrow=ERzeroToMany;endFill=1;rounded=0;exitX=0.125;exitY=-0.008;exitDx=0;exitDy=0;exitPerimeter=0;" edge="1" parent="1" source="esB7P4ioS08fbRLjBYiO-21" target="esB7P4ioS08fbRLjBYiO-28">
          <mxGeometry width="100" height="100" relative="1" as="geometry">
            <mxPoint x="410" y="-810" as="sourcePoint" />
            <mxPoint x="410" y="-930" as="targetPoint" />
          </mxGeometry>
        </mxCell>
        <mxCell id="esB7P4ioS08fbRLjBYiO-55" value="" style="edgeStyle=entityRelationEdgeStyle;fontSize=12;html=1;endArrow=ERzeroToMany;endFill=1;rounded=0;exitX=0.5;exitY=0;exitDx=0;exitDy=0;entryX=0;entryY=0.25;entryDx=0;entryDy=0;" edge="1" parent="1" source="esB7P4ioS08fbRLjBYiO-23" target="esB7P4ioS08fbRLjBYiO-29">
          <mxGeometry width="100" height="100" relative="1" as="geometry">
            <mxPoint x="360" y="-750" as="sourcePoint" />
            <mxPoint x="344" y="-880" as="targetPoint" />
          </mxGeometry>
        </mxCell>
        <mxCell id="esB7P4ioS08fbRLjBYiO-56" value="" style="edgeStyle=entityRelationEdgeStyle;fontSize=12;html=1;endArrow=ERzeroToMany;endFill=1;rounded=0;entryX=1;entryY=0.25;entryDx=0;entryDy=0;exitX=1;exitY=0.25;exitDx=0;exitDy=0;" edge="1" parent="1" source="esB7P4ioS08fbRLjBYiO-49" target="esB7P4ioS08fbRLjBYiO-35">
          <mxGeometry width="100" height="100" relative="1" as="geometry">
            <mxPoint x="720" y="-950" as="sourcePoint" />
            <mxPoint x="700" y="-910" as="targetPoint" />
          </mxGeometry>
        </mxCell>
        <mxCell id="esB7P4ioS08fbRLjBYiO-58" value="" style="edgeStyle=entityRelationEdgeStyle;fontSize=12;html=1;endArrow=ERzeroToMany;endFill=1;rounded=0;entryX=1;entryY=0.25;entryDx=0;entryDy=0;exitX=0.25;exitY=0;exitDx=0;exitDy=0;" edge="1" parent="1" source="esB7P4ioS08fbRLjBYiO-35" target="esB7P4ioS08fbRLjBYiO-28">
          <mxGeometry width="100" height="100" relative="1" as="geometry">
            <mxPoint x="360" y="-750" as="sourcePoint" />
            <mxPoint x="460" y="-850" as="targetPoint" />
          </mxGeometry>
        </mxCell>
        <mxCell id="esB7P4ioS08fbRLjBYiO-59" value="" style="edgeStyle=entityRelationEdgeStyle;fontSize=12;html=1;endArrow=ERzeroToMany;endFill=1;rounded=0;entryX=1;entryY=0.5;entryDx=0;entryDy=0;exitX=0;exitY=0.5;exitDx=0;exitDy=0;" edge="1" parent="1" source="esB7P4ioS08fbRLjBYiO-36" target="esB7P4ioS08fbRLjBYiO-18">
          <mxGeometry width="100" height="100" relative="1" as="geometry">
            <mxPoint x="700" y="-600" as="sourcePoint" />
            <mxPoint x="600" y="-530" as="targetPoint" />
          </mxGeometry>
        </mxCell>
        <mxCell id="esB7P4ioS08fbRLjBYiO-60" value="" style="edgeStyle=entityRelationEdgeStyle;fontSize=12;html=1;endArrow=ERzeroToMany;endFill=1;rounded=0;exitX=1;exitY=0.25;exitDx=0;exitDy=0;entryX=0;entryY=0.25;entryDx=0;entryDy=0;" edge="1" parent="1" source="esB7P4ioS08fbRLjBYiO-21" target="esB7P4ioS08fbRLjBYiO-35">
          <mxGeometry width="100" height="100" relative="1" as="geometry">
            <mxPoint x="360" y="-750" as="sourcePoint" />
            <mxPoint x="460" y="-850" as="targetPoint" />
          </mxGeometry>
        </mxCell>
      </root>
    </mxGraphModel>
  </diagram>
</mxfile>
